<svg version="1.1" id="Layer_1"
     xmlns="http://www.w3.org/2000/svg" xmlns:xlink="http://www.w3.org/1999/xlink"
     width="100%" viewBox="0 0 85 130" enable-background="new 0 0 85 130" xml:space="preserve">
  <style type="text/css">
    .st0{fill:none;stroke:#000000;stroke-width:5;}
  </style>
  <path d="M77.5,62.3c-1.8-4.4-3.9-8.9-6.3-13.2c-0.5-0.9-1-1.3-1.5-1.3c-0.6,0-1.1,0.6-1.4,1.8c-1,3.9-2.9,8.7-5.9,8.7
    c-0.3,0-0.6,0-0.9-0.2c-6.9-2.3-4.9-13.1-5.2-18.4c-0.7-13.6-5.3-28.9-15.3-38.9C40.3,0.3,39.8,0,39.4,0c-0.7,0-1,0.8-1,2.2
    c0,5.5-2.2,16.9-15.2,36.4C10.4,57.8-2.4,82.7,7.5,106c6.1,14.2,20.5,22,34.9,22c0.1,0,0.1,0,0.2,0
    c0,0,0.1,0,0.1,0c0,0,0.1,0,0.1,0c0,0,0,0,0.1,0c0.1,0,0.2,0,0.3,0c9.4-0.2,18.7-3.7,25.7-11
    C83.4,101.7,85.3,81,77.5,62.3z
    M51.7,92.5c0.6,0.2,1.2,0.3,1.8,0.3c1.2,0,2.6-0.4,3.9-1.6c0.2,0.4,0.4,0.8,0.5,1.3c3.9,9.8,2.4,19.7-3.9,26.6
    c-0.6,0.7-1.2,1.2-1.9,1.8c1.4-3.6,1.2-7.6-0.2-11.3c-0.5-1.2-1-2.5-1.6-3.7
    c-0.1-0.3-0.3-0.4-0.4-0.4c-0.1,0-0.3,0.2-0.3,0.5c-0.3,1.1-0.7,2.5-1.5,2.5
    c-0.1,0-0.2,0-0.2,0c-1.8-0.6-1.3-3.7-1.3-5.2c-0.2-3.8-1.4-8.1-3.9-10.9
    c-0.2-0.2-0.3-0.2-0.4-0.2c-0.2,0-0.3,0.2-0.3,0.6c0,1.5-0.6,4.7-3.9,10.2
    c-3.2,5.3-6.4,12.2-4.1,18.6c-2.7-1.7-4.9-4.3-6.2-7.3c-4.8-11.7,2.3-25.1,8.1-34.2
    c3.8-6,6-10.8,7.3-14.6c1.8,3.8,2.9,8.4,3.1,13.3c0,0.4,0,1.1,0,1.8
    C46,83.9,45.9,90.5,51.7,92.5z
    M35.8,121.1c-2.3-5.9,1.1-12.6,3.9-17.2c1.7-2.8,2.8-5.2,3.4-7c0.8,1.9,1.3,4.1,1.4,6.4
    c0,0.2,0,0.5,0,0.9c0,1.8-0.1,5.1,2.7,6.1c0.3,0.1,0.6,0.2,0.9,0.2
    c0.7,0,1.3-0.2,1.8-0.7c0.1,0.2,0.1,0.3,0.2,0.5c1.7,4.5,1.3,9.2-1.2,12.6
    c-1.8,0.8-3.8,1.2-5.8,1.2c-0.1,0-0.2,0-0.3,0c-2,0-4-0.4-5.8-1.1
    C36.4,122.4,36,121.8,35.8,121.1z
    M58.4,120c6.4-8.4,7.1-19.2,3.1-29c-1-2.5-2.1-5-3.4-7.4c-0.3-0.5-0.5-0.7-0.8-0.7
    c-0.3,0-0.6,0.3-0.7,1c-0.5,2.2-1.6,4.9-3.2,4.9c-0.2,0-0.3,0-0.5-0.1
    c-3.7-1.3-2.7-7.3-2.8-10.3c-0.4-7.6-2.9-16.3-8.2-21.9c-0.3-0.3-0.6-0.5-0.8-0.5
    c-0.4,0-0.6,0.4-0.6,1.2c0,3.1-1.2,9.5-8.2,20.5c-6.9,10.8-13.8,24.8-8.4,37.9
    c0.7,1.8,1.7,3.4,2.8,4.8c-6.9-3.4-12.5-8.9-15.5-16c-9.5-22.1,4.2-46.9,15.3-63.6
    c10-15,14-25.6,15.3-32.8c6,8.1,9.7,19.5,10.4,32c0,0.9,0,2.1,0,3.3
    c-0.1,5.9-0.4,15.9,8,18.6c0.7,0.2,1.4,0.4,2.2,0.4c2.4,0,5.4-1.2,7.9-6.3
    c1.2,2.4,2.4,5,3.5,7.8c7.7,18.4,4.8,37.3-7.8,50.4C63.8,116.6,61.2,118.5,58.4,120z"/>
</svg>
