<?xml version="1.0" encoding="utf-8"?>
<!-- Generator: Adobe Illustrator 27.9.1, SVG Export Plug-In . SVG Version: 6.00 Build 0)  -->
<svg version="1.1" id="Ebene_1" xmlns="http://www.w3.org/2000/svg" xmlns:xlink="http://www.w3.org/1999/xlink" x="0px" y="0px"
	 viewBox="0 0 110 131" style="enable-background:new 0 0 110 131;" xml:space="preserve">
<style type="text/css">
	.st0{fill:none;stroke:#000000;stroke-width:5;}
</style>
<path class="st0" d="M105.2,93.4c-5.5,11.9-10.4,20.1-14.8,24.7c-4.4,4.6-9.3,6.9-14.7,6.9c-2.4,0-5.6-0.8-9.5-2.4
	c-3.9-1.6-6.9-2.4-8.8-2.4c-2.2,0-5.3,0.8-9.5,2.4c-4.1,1.6-7.2,2.4-9.2,2.4c-3.1,0-6.2-1.1-9.3-3.2s-6.2-5.3-9.3-9.5
	c-4.9-6.7-8.7-13.8-11.4-21.3s-4-14.7-4-21.7c0-10.5,3-19.1,9.1-25.8s13.8-10,23.3-10c3.3,0,7,0.8,11.2,2.5s7.2,2.5,9,2.5
	c1.6,0,4.6-0.8,8.8-2.5c4.2-1.7,7.9-2.5,11-2.5c5.3,0,10.1,1,14.3,2.9c4.2,1.9,8.1,4.9,11.6,9C98,48.5,94.4,52,92,55.8
	c-2.4,3.9-3.6,8.3-3.6,13.2c0,5.4,1.4,10.2,4.3,14.4C95.6,87.6,99.8,90.9,105.2,93.4z M56.9,34.6c0-0.3-0.1-0.6-0.1-1
	c0-0.4,0-0.9,0-1.6c0-6,2.3-11.5,6.9-16.6s10.2-8.2,17-9.5c0,0.5,0.1,1.1,0.1,1.7s0,1.5,0,2.8c0,6.3-2.5,11.9-7.5,16.9
	s-9.9,7.5-14.7,7.5h-0.6c-0.1,0-0.3,0-0.5,0C57.4,34.8,57.2,34.7,56.9,34.6z"/>
</svg>
